<mxfile host="app.diagrams.net" modified="2024-06-17T14:04:54.087Z" agent="Mozilla/5.0 (X11; Linux x86_64) AppleWebKit/537.36 (KHTML, like Gecko) Chrome/124.0.0.0 Safari/537.36" etag="7MfZOXj7WiHe4ijFMbrc" version="24.5.4" type="github">
  <diagram name="Seite-1" id="cjGPHK_Qzqpps3cAyXw2">
    <mxGraphModel dx="1010" dy="742" grid="1" gridSize="10" guides="1" tooltips="1" connect="1" arrows="1" fold="1" page="1" pageScale="1" pageWidth="827" pageHeight="1169" math="0" shadow="0">
      <root>
        <mxCell id="0" />
        <mxCell id="1" parent="0" />
        <mxCell id="Ggdnsr6Rv0r3WAjP0ZBD-2" value="InÃ­cio&amp;nbsp;" style="text;html=1;align=center;verticalAlign=middle;whiteSpace=wrap;rounded=0;fillColor=none;strokeColor=default;strokeWidth=2;shadow=1;" vertex="1" parent="1">
          <mxGeometry x="196" y="50" width="110" height="50" as="geometry" />
        </mxCell>
        <mxCell id="Ggdnsr6Rv0r3WAjP0ZBD-3" value="test" style="text;html=1;align=center;verticalAlign=middle;whiteSpace=wrap;rounded=0;strokeColor=default;" vertex="1" parent="1">
          <mxGeometry x="196" y="130" width="134" height="77" as="geometry" />
        </mxCell>
        <mxCell id="Ggdnsr6Rv0r3WAjP0ZBD-4" value="test" style="text;html=1;align=center;verticalAlign=middle;whiteSpace=wrap;rounded=0;strokeColor=default;" vertex="1" parent="1">
          <mxGeometry x="320" y="330" width="134" height="77" as="geometry" />
        </mxCell>
        <mxCell id="Ggdnsr6Rv0r3WAjP0ZBD-9" value="" style="endArrow=classic;html=1;rounded=0;entryX=0.5;entryY=0;entryDx=0;entryDy=0;exitX=0.5;exitY=1;exitDx=0;exitDy=0;" edge="1" parent="1" source="Ggdnsr6Rv0r3WAjP0ZBD-3" target="Ggdnsr6Rv0r3WAjP0ZBD-4">
          <mxGeometry width="50" height="50" relative="1" as="geometry">
            <mxPoint x="340" y="290" as="sourcePoint" />
            <mxPoint x="390" y="240" as="targetPoint" />
            <Array as="points">
              <mxPoint x="263" y="260" />
              <mxPoint x="387" y="260" />
            </Array>
          </mxGeometry>
        </mxCell>
      </root>
    </mxGraphModel>
  </diagram>
</mxfile>
